<svg xmlns="http://www.w3.org/2000/svg" viewBox="18 12 164 176" fill="#14130F">
  <rect x="24" y="18" width="8" height="164" rx="4"/>
  <rect x="36" y="36" width="8" height="128" rx="4"/>
  <rect x="48" y="52" width="8" height="96" rx="4"/>
  <rect x="60" y="68" width="8" height="64" rx="4"/>
  <rect x="72" y="78" width="8" height="44" rx="4"/>
  <rect x="84" y="86" width="8" height="28" rx="4"/>
  <rect x="96" y="92" width="8" height="16" rx="4"/>
  <rect x="108" y="86" width="8" height="28" rx="4"/>
  <rect x="120" y="78" width="8" height="44" rx="4"/>
  <rect x="132" y="68" width="8" height="64" rx="4"/>
  <rect x="144" y="52" width="8" height="96" rx="4"/>
  <rect x="156" y="36" width="8" height="128" rx="4"/>
  <rect x="168" y="18" width="8" height="164" rx="4"/>
</svg>
