<svg xmlns="http://www.w3.org/2000/svg" viewBox="0 0 200 200" fill="#14130F">
  <rect x="86.1" y="18" width="1.4" height="164" rx="0.7"/>
  <rect x="88.3" y="36" width="1.4" height="128" rx="0.7"/>
  <rect x="90.5" y="52" width="1.4" height="96" rx="0.7"/>
  <rect x="92.7" y="68" width="1.4" height="64" rx="0.7"/>
  <rect x="94.9" y="78" width="1.4" height="44" rx="0.7"/>
  <rect x="97.1" y="86" width="1.4" height="28" rx="0.7"/>
  <rect x="99.3" y="92" width="1.4" height="16" rx="0.7"/>
  <rect x="101.5" y="86" width="1.4" height="28" rx="0.7"/>
  <rect x="103.7" y="78" width="1.4" height="44" rx="0.7"/>
  <rect x="105.9" y="68" width="1.4" height="64" rx="0.7"/>
  <rect x="108.1" y="52" width="1.4" height="96" rx="0.7"/>
  <rect x="110.3" y="36" width="1.4" height="128" rx="0.7"/>
  <rect x="112.5" y="18" width="1.4" height="164" rx="0.7"/>
</svg>
